<mxfile host="app.diagrams.net" agent="Mozilla/5.0 (Windows NT 10.0; Win64; x64) AppleWebKit/537.36 (KHTML, like Gecko) Chrome/138.0.0.0 Safari/537.36" version="28.0.7">
  <diagram name="Page-1" id="9wNEvhlqgGfSXld-s768">
    <mxGraphModel dx="1042" dy="596" grid="1" gridSize="10" guides="1" tooltips="1" connect="1" arrows="1" fold="1" page="1" pageScale="1" pageWidth="850" pageHeight="1100" math="0" shadow="0">
      <root>
        <mxCell id="0" />
        <mxCell id="1" parent="0" />
        <mxCell id="vS6DwsHi1QsSr6udYIfc-1" value="" style="rounded=0;whiteSpace=wrap;html=1;" vertex="1" parent="1">
          <mxGeometry x="240" width="360" height="40" as="geometry" />
        </mxCell>
        <mxCell id="vS6DwsHi1QsSr6udYIfc-4" value="ShopSmart" style="text;html=1;align=center;verticalAlign=middle;whiteSpace=wrap;rounded=0;" vertex="1" parent="1">
          <mxGeometry x="270" y="5" width="60" height="30" as="geometry" />
        </mxCell>
        <mxCell id="vS6DwsHi1QsSr6udYIfc-5" value="" style="editableCssRules=.*;html=1;shape=image;verticalLabelPosition=bottom;labelBackgroundColor=#ffffff;verticalAlign=top;aspect=fixed;imageAspect=0;image=data:image/svg+xml,PHN2ZyB4bWxucz0iaHR0cDovL3d3dy53My5vcmcvMjAwMC9zdmciIHhtbG5zOnY9Imh0dHBzOi8vdmVjdGEuaW8vbmFubyIgd2lkdGg9IjIwIiBoZWlnaHQ9IjE2IiB2aWV3Qm94PSIwIDAgMjAgMTYiPiYjeGE7CTxzdHlsZSB0eXBlPSJ0ZXh0L2NzcyI+JiN4YTsJLnN0MHtmaWxsOiM0Mjg1ZjQ7fSYjeGE7CTwvc3R5bGU+JiN4YTsJPHBhdGggY2xhc3M9InN0MCIgZD0iTTAgMTZoMjB2LTRIMHptMi0zaDJ2Mkgyek0wIDB2NGgyMFYwem00IDNIMlYxaDJ6bS00IDdoMjBWNkgwem0yLTNoMnYySDJ6Ii8+JiN4YTs8L3N2Zz4=;" vertex="1" parent="1">
          <mxGeometry x="530" y="10" width="25" height="20" as="geometry" />
        </mxCell>
        <mxCell id="vS6DwsHi1QsSr6udYIfc-6" value="" style="rounded=0;whiteSpace=wrap;html=1;" vertex="1" parent="1">
          <mxGeometry x="240" y="80" width="360" height="200" as="geometry" />
        </mxCell>
        <mxCell id="vS6DwsHi1QsSr6udYIfc-8" value="" style="rounded=0;whiteSpace=wrap;html=1;" vertex="1" parent="1">
          <mxGeometry x="480" y="220" width="100" height="30" as="geometry" />
        </mxCell>
        <mxCell id="vS6DwsHi1QsSr6udYIfc-9" value="Product Categories" style="text;html=1;align=center;verticalAlign=middle;whiteSpace=wrap;rounded=0;fontSize=20;" vertex="1" parent="1">
          <mxGeometry x="320" y="330" width="200" height="30" as="geometry" />
        </mxCell>
        <mxCell id="vS6DwsHi1QsSr6udYIfc-13" value="" style="rounded=0;whiteSpace=wrap;html=1;" vertex="1" parent="1">
          <mxGeometry x="320" y="400" width="200" height="60" as="geometry" />
        </mxCell>
        <mxCell id="vS6DwsHi1QsSr6udYIfc-14" value="" style="rounded=0;whiteSpace=wrap;html=1;" vertex="1" parent="1">
          <mxGeometry x="320" y="510" width="200" height="60" as="geometry" />
        </mxCell>
        <mxCell id="vS6DwsHi1QsSr6udYIfc-15" value="" style="rounded=0;whiteSpace=wrap;html=1;" vertex="1" parent="1">
          <mxGeometry x="320" y="610" width="200" height="60" as="geometry" />
        </mxCell>
        <mxCell id="vS6DwsHi1QsSr6udYIfc-16" value="Featured Products" style="text;html=1;align=center;verticalAlign=middle;whiteSpace=wrap;rounded=0;fontSize=20;" vertex="1" parent="1">
          <mxGeometry x="320" y="720" width="200" height="30" as="geometry" />
        </mxCell>
        <mxCell id="vS6DwsHi1QsSr6udYIfc-17" value="" style="rounded=0;whiteSpace=wrap;html=1;" vertex="1" parent="1">
          <mxGeometry x="320" y="770" width="200" height="60" as="geometry" />
        </mxCell>
        <mxCell id="vS6DwsHi1QsSr6udYIfc-18" value="" style="rounded=0;whiteSpace=wrap;html=1;" vertex="1" parent="1">
          <mxGeometry x="320" y="880" width="200" height="60" as="geometry" />
        </mxCell>
        <mxCell id="vS6DwsHi1QsSr6udYIfc-19" value="" style="rounded=0;whiteSpace=wrap;html=1;" vertex="1" parent="1">
          <mxGeometry x="320" y="980" width="200" height="60" as="geometry" />
        </mxCell>
        <mxCell id="vS6DwsHi1QsSr6udYIfc-21" value="Footer" style="rounded=0;whiteSpace=wrap;html=1;" vertex="1" parent="1">
          <mxGeometry x="240" y="1070" width="360" height="40" as="geometry" />
        </mxCell>
      </root>
    </mxGraphModel>
  </diagram>
</mxfile>
